<?xml version="1.0" encoding="UTF-8"?>
<svg id="Layer_2" data-name="Layer 2" xmlns="http://www.w3.org/2000/svg" viewBox="0 0 935.61 160.47">
  <defs>
    <style>
      .cls-1 {
        fill: #f17f55;
      }
    </style>
  </defs>
  <g id="Layer_1-2" data-name="Layer 1">
    <g>
      <g>
        <path class="cls-1" d="M132.2,28.55c-7.88,0-11.82-3.88-11.82-11.63v-5.29c0-7.76,3.94-11.63,11.82-11.63h12.67c7.88,0,11.82,3.88,11.82,11.63v5.29c0,7.76-3.94,11.63-11.82,11.63h-12.67ZM119.96,53.94c0-7.76,3.94-11.63,11.82-11.63h13.54c7.88,0,11.82,3.88,11.82,11.63v85.64c0,7.76-3.94,11.63-11.82,11.63h-13.54c-7.88,0-11.82-3.88-11.82-11.63V53.94Z"/>
        <path class="cls-1" d="M559.64,28.55c-7.88,0-11.82-3.88-11.82-11.63v-5.29c0-7.76,3.94-11.63,11.82-11.63h12.67c7.88,0,11.82,3.88,11.82,11.63v5.29c0,7.76-3.94,11.63-11.82,11.63h-12.67ZM547.4,53.94c0-7.76,3.94-11.63,11.82-11.63h13.54c7.88,0,11.82,3.88,11.82,11.63v85.64c0,7.76-3.94,11.63-11.82,11.63h-13.54c-7.88,0-11.82-3.88-11.82-11.63V53.94Z"/>
        <path class="cls-1" d="M181.78,72.52h-3.16c-7.59,0-11.36-3.88-11.36-11.63v-5.29c0-7.76,3.86-11.63,11.58-11.63h3.99v-19.68c0-7.76,3.86-11.63,11.58-11.63h12.22c7.72,0,11.58,3.88,11.58,11.63v19.68h11.16c7.72,0,11.58,3.88,11.58,11.63v5.29c0,7.76-3.79,11.63-11.36,11.63h-11.36v32.98c0,4.65,1.29,8,3.9,10.05,2.59,2.05,5.5,3.28,8.73,3.7,4.21.57,7.19,1.63,8.95,3.17,1.75,1.54,2.63,4.36,2.63,8.46v9.52c0,4.36-1.27,7.4-3.79,9.1-2.52,1.7-6.25,2.53-11.16,2.53-4.08,0-8.71-.57-13.9-1.7-5.2-1.12-10.18-3.17-14.96-6.13-4.78-2.95-8.77-7.01-12-12.16-3.22-5.16-4.85-11.74-4.85-19.76v-39.77Z"/>
        <path class="cls-1" d="M282.87,117.11c0,2.53.88,4.72,2.65,6.57,1.76,1.83,4.34,2.76,7.72,2.76,2.67,0,5.16-.6,7.41-1.81,2.25-1.19,4.23-2.71,5.93-4.54,1.7-1.83,3-3.88,3.92-6.13.93-2.25,1.37-4.52,1.37-6.77v-2.95h-3.4c-2.82,0-5.75.22-8.77.64-3.04.42-5.78,1.12-8.25,2.12s-4.52,2.29-6.13,3.92c-1.63,1.63-2.43,3.7-2.43,6.24l-.02-.04ZM246.67,120.49c0-7.34,1.94-13.4,5.82-18.18,3.88-4.78,8.84-8.6,14.93-11.42,6.06-2.82,12.7-4.78,19.89-5.93,7.19-1.12,14.18-1.7,20.94-1.7h3.17v-1.9c0-4.52-1.57-7.65-4.65-9.41-3.11-1.76-6.7-2.64-10.8-2.64-3.53,0-6.99.51-10.36,1.48-3.4.99-6.48,2.12-9.3,3.39-7.19,3.11-12.41,1.41-15.65-5.07l-2.54-5.29c-1.54-3.24-1.98-6.24-1.28-8.99s2.67-4.98,5.93-6.66c4.1-1.98,9.24-3.88,15.45-5.71,6.22-1.83,13.25-2.76,21.16-2.76,15.1,0,26.99,3.92,35.65,11.75,8.66,7.82,13.01,18.71,13.01,32.69v55.43c0,7.76-3.88,11.64-11.64,11.64h-10.16c-7.76,0-11.64-3.95-11.64-11.86v-2.34c0-.29.07-.48.22-.64h-.42c-2.12,3.24-4.72,6.13-7.83,8.68-2.69,2.25-6.06,4.28-10.16,6.04-4.1,1.76-8.82,2.64-14.18,2.64s-10.01-.84-14.4-2.53c-4.37-1.7-8.11-4.01-11.22-6.99-3.11-2.95-5.53-6.48-7.3-10.58-1.76-4.1-2.65-8.46-2.65-13.11v-.04Z"/>
        <path class="cls-1" d="M363.27,53.88c0-7.76,3.89-11.64,11.66-11.64h11.88c7.64,0,11.44,3.88,11.44,11.64v1.9c0,.29-.04.57-.11.84-.07.29-.11.57-.11.84v1.06h.42c1.28-1.83,2.87-3.88,4.77-6.13,1.9-2.25,4.2-4.3,6.89-6.13,2.67-1.83,5.76-3.39,9.23-4.65,3.47-1.28,7.31-1.9,11.55-1.9,6.91,0,13.03,1.52,18.33,4.54,5.3,3.04,9.36,7.65,12.19,13.86h.42c1.41-2.25,3.29-4.47,5.61-6.66,2.34-2.18,4.99-4.17,7.95-5.93,2.96-1.76,6.25-3.17,9.85-4.23,3.6-1.06,7.44-1.59,11.55-1.59,4.95,0,9.56.71,13.89,2.12,4.31,1.41,8.06,3.75,11.24,6.99,3.18,3.24,5.7,7.47,7.53,12.7,1.83,5.22,2.76,11.57,2.76,19.04v59.03c0,7.76-3.89,11.64-11.66,11.64h-13.36c-7.77,0-11.66-3.88-11.66-11.64v-52.9c0-4.1-.53-7.41-1.59-9.94s-3.36-3.81-6.89-3.81c-3.95,0-7.29.93-9.96,2.76-2.69,1.83-4.84,4.23-6.47,7.19-1.63,2.95-2.78,6.39-3.49,10.27-.71,3.88-1.06,7.87-1.06,11.95v34.49c0,7.76-3.89,11.64-11.66,11.64h-13.36c-7.77,0-11.66-3.88-11.66-11.64v-52.9c0-4.1-.53-7.41-1.59-9.94-1.06-2.53-3.36-3.81-6.89-3.81-4.24,0-7.71.99-10.38,2.95-2.69,1.98-4.81,4.47-6.36,7.52-1.55,3.04-2.65,6.46-3.29,10.27-.64,3.81-.95,7.63-.95,11.42v34.49c0,7.76-3.89,11.64-11.66,11.64h-13.36c-7.77,0-11.66-3.88-11.66-11.64V53.88h.02Z"/>
        <path class="cls-1" d="M601.48,53.84c0-7.7,3.88-11.55,11.64-11.55h11.86c7.63,0,11.42,3.85,11.42,11.55v1.88c0,.28-.04.57-.11.83-.07.28-.11.57-.11.83v1.05h.42c1.28-2.1,2.89-4.27,4.87-6.52,1.98-2.23,4.36-4.22,7.19-5.99,2.82-1.75,6.11-3.22,9.83-4.42,3.73-1.18,8-1.79,12.81-1.79,5.51,0,10.65.7,15.45,2.1,4.78,1.4,8.93,3.68,12.39,6.83,3.46,3.15,6.19,7.31,8.24,12.49,2.05,5.19,3.06,11.55,3.06,19.1v58.59c0,7.7-3.88,11.55-11.64,11.55h-13.34c-7.76,0-11.64-3.85-11.64-11.55v-51.87c0-5.03-.99-8.69-2.95-10.92-1.98-2.23-5-3.37-9.1-3.37s-7.63.77-10.58,2.32c-2.95,1.53-5.42,3.63-7.41,6.3-1.98,2.67-3.42,5.73-4.34,9.23-.93,3.5-1.37,7.13-1.37,10.92v37.39c0,7.7-3.88,11.55-11.64,11.55h-13.34c-7.76,0-11.64-3.85-11.64-11.55V53.84h.02Z"/>
        <path class="cls-1" d="M.97,55.56c-1.41-4.1-1.28-7.34.42-9.74,1.7-2.4,4.73-3.59,9.12-3.59h14.2c6.78,0,11.08,3.24,12.94,9.74l14.2,48.23c.55,1.83,1.06,3.81,1.48,5.93.42,2.12.84,4.17,1.28,6.13.42,2.25.84,4.52,1.28,6.77h.42c.29-2.25.71-4.52,1.28-6.77.29-1.98.66-4.01,1.17-6.13.49-2.12,1.02-4.1,1.59-5.93l14-48.23c1.83-6.48,6.14-9.74,12.92-9.74h14.62c4.24,0,7.24,1.19,9.01,3.59,1.77,2.4,1.94,5.64.53,9.74l-29.45,86.12c-2.12,6.35-6.49,9.52-13.14,9.52h-24.8c-6.65,0-11.02-3.17-13.14-9.52L.97,55.56Z"/>
      </g>
      <path class="cls-1" d="M728.36,99.66v-6.03c0-5.82,3.23-8.83,9.05-8.83h46.74c5.82,0,9.05,3.02,9.05,8.83v6.03c0,6.03-3.23,9.05-9.05,9.05h-46.74c-5.82,0-9.05-3.02-9.05-9.05Z"/>
      <path class="cls-1" d="M878.2,30.44c36.91,0,57.42,26.05,57.42,59.35,0,6.51-5.79,13.75-13.99,13.75h-65.38c3.14,15.2,15.68,22.19,28.95,22.19,8.44,0,16.4-2.65,22.68-5.79,7.96-3.62,13.75-2.65,17.85,5.07l3.38,6.27c3.86,7.48,2.65,13.99-4.58,18.09-8.93,5.07-23.64,11.1-42.7,11.1-44.39,0-68.27-32.09-68.27-65.14,0-36.43,24.61-64.89,64.65-64.89ZM894.36,79.66c0-10.13-6.51-18.58-17.13-18.58-12.06,0-17.85,8.68-20.02,18.58h37.15Z"/>
    </g>
  </g>
</svg>