<?xml version="1.0" encoding="UTF-8"?>
<svg id="Layer_2" data-name="Layer 2" xmlns="http://www.w3.org/2000/svg" viewBox="0 0 121.46 48">
  <defs>
    <style>
      .cls-1, .cls-2 {
        fill: #f27f55;
      }

      .cls-3 {
        fill: #e5d259;
      }

      .cls-2 {
        font-family: DMMono-Regular, 'DM Mono';
        font-size: 35.71px;
      }
    </style>
  </defs>
  <g id="Layer_1-2" data-name="Layer 1">
    <g>
      <g>
        <path class="cls-3" d="M3.19,26.34c.46.52.98.88,1.36,1.19.19.16.38.26.55.35.16.09.3.17.42.24.23.13.35.19.35.19,0,0-.09-.11-.25-.31-.16-.2-.43-.48-.71-.87-.27-.39-.6-.83-.91-1.4-.08-.14-.16-.28-.25-.43-.07-.15-.14-.32-.22-.48-.15-.33-.32-.65-.43-1.03-.06-.18-.13-.37-.2-.55-.07-.19-.1-.39-.16-.59-.05-.2-.1-.4-.16-.61-.03-.21-.07-.42-.1-.64-.16-.85-.17-1.77-.15-2.7.09-.93.19-1.89.48-2.82.1-.48.32-.92.47-1.38.09-.23.21-.44.31-.67.11-.22.2-.45.34-.65l.37-.63c.12-.21.28-.4.42-.6l.21-.3.05-.07.03-.04v-.02c-.04.06,0,.01,0,.02h0s.13-.17.13-.17c.17-.2.35-.43.52-.61l.49-.52c.18-.18.36-.36.53-.54.36-.35.73-.7,1.1-1.04.75-.69,1.48-1.36,2.17-1.99.69-.65,1.34-1.29,1.91-1.91.57-.63,1.06-1.23,1.45-1.81.2-.28.38-.55.53-.81.15-.26.29-.5.39-.72.11-.22.2-.42.27-.6.06-.18.12-.33.16-.46.08-.25.12-.38.12-.38,0,0-.09.11-.26.31-.08.1-.18.22-.3.37-.13.14-.27.29-.43.47-.15.18-.34.36-.55.55-.1.1-.21.2-.32.3-.12.1-.24.2-.36.31-.24.22-.51.43-.8.66-.28.23-.6.46-.92.7-1.29.96-2.88,1.98-4.56,3.25-.42.31-.84.66-1.26,1.01-.21.18-.42.37-.63.55-.21.21-.42.41-.64.62-.21.21-.37.4-.56.6l-.14.15-.04.05-.02.02-.03.04-.07.09-.27.36c-.18.24-.37.48-.53.73l-.47.78c-.16.26-.28.54-.41.81-.12.28-.26.55-.37.83-.19.57-.41,1.13-.51,1.72-.06.29-.14.58-.18.87-.03.29-.07.58-.1.87C-.03,17.58.01,18.16,0,18.71c.08,1.12.24,2.19.56,3.16.08.24.16.48.23.71.1.23.2.45.29.67.18.44.41.84.64,1.21.21.38.47.72.72,1.03.12.16.24.31.36.45.13.13.26.26.38.39Z"/>
        <path class="cls-1" d="M18.09,14.47c-.16-.82-.39-1.51-.59-2.07-.2-.56-.41-.98-.54-1.26-.14-.28-.23-.42-.23-.42,0,0,.15.66.27,1.8.04.39.07.85.09,1.35h-8.55c-.12-.49-.55-.85-1.08-.85-.61,0-1.11.5-1.11,1.11s.5,1.11,1.11,1.11c.52,0,.96-.36,1.08-.85h8.56c0,.75-.03,1.59-.15,2.5H6.92c-.12-.49-.55-.85-1.08-.85-.61,0-1.11.5-1.11,1.11s.5,1.11,1.11,1.11c.52,0,.96-.36,1.08-.85h9.94c-.13.8-.33,1.65-.61,2.5H6.64c-.12-.49-.55-.85-1.08-.85-.61,0-1.11.5-1.11,1.11s.5,1.11,1.11,1.11c.52,0,.96-.36,1.08-.85h9.43c-.31.84-.7,1.68-1.19,2.5h-7.46c-.12-.49-.55-.85-1.08-.85-.61,0-1.11.5-1.11,1.11s.5,1.11,1.11,1.11c.52,0,.96-.36,1.08-.85h7.13c-.56.85-1.21,1.66-1.95,2.43-.02.02-.05.04-.07.07h-3.47c-.12-.49-.55-.85-1.08-.85-.61,0-1.11.5-1.11,1.11s.5,1.11,1.11,1.11c.52,0,.96-.36,1.08-.85h2.93s-.03.03-.04.04c-.23.21-.45.42-.68.61-.24.19-.43.38-.71.58l-.79.59-.81.62c-.28.21-.54.45-.81.68-.27.22-.52.47-.77.72-.25.24-.49.5-.72.76-.94,1.04-1.73,2.18-2.34,3.38-.61,1.19-1.04,2.42-1.29,3.61-.26,1.19-.34,2.33-.32,3.37,0,1.04.15,1.99.32,2.8.16.82.39,1.51.59,2.07.2.56.41.98.54,1.26.14.28.23.42.23.42,0,0-.15-.66-.27-1.8-.11-1.14-.18-2.78.08-4.66.28-1.88.93-3.99,2.14-5.94.6-.98,1.34-1.91,2.18-2.78.2-.22.42-.43.65-.64.23-.21.45-.42.69-.61.24-.19.46-.41.72-.59l.78-.58.79-.6c.26-.19.55-.46.82-.68.28-.23.53-.48.78-.73.25-.24.49-.5.72-.76.94-1.04,1.73-2.19,2.34-3.38.61-1.19,1.04-2.42,1.29-3.61.26-1.19.34-2.33.32-3.38,0-1.04-.15-1.99-.32-2.8Z"/>
      </g>
      <text class="cls-2" transform="translate(24.38 35.2)"><tspan x="0" y="0">H</tspan><tspan x="20.18" y="0">E</tspan><tspan x="39.43" y="0">L</tspan><tspan x="57.43" y="0">I</tspan><tspan x="75.64" y="0">X</tspan></text>
    </g>
  </g>
</svg>