<?xml version="1.0" encoding="UTF-8"?>
<svg id="Layer_2" xmlns="http://www.w3.org/2000/svg" version="1.1" viewBox="0 0 240 403.3">
  <!-- Generator: Adobe Illustrator 29.8.1, SVG Export Plug-In . SVG Version: 2.1.1 Build 2)  -->
  <defs>
    <style>
      .st0 {
        fill: #f27f55;
      }

      .st1 {
        isolation: isolate;
      }
    </style>
  </defs>
  <g id="Layer_1-2">
    <g class="st1">
      <g class="st1">
        <path class="st0" d="M94.7,80.6V10.9h8.4v30.1h33.8V10.9h8.4v69.7h-8.4v-32.1h-33.8v32.1h-8.4Z"/>
      </g>
      <g class="st1">
        <path class="st0" d="M98.2,158.6v-69.7h43.5v7.6h-35.2v23.2h32.2v7.6h-32.2v23.8h35.2v7.6h-43.5Z"/>
      </g>
      <g class="st1">
        <path class="st0" d="M98.1,236.5v-69.7h8.4v62.2h35.4v7.6h-43.7Z"/>
      </g>
      <g class="st1">
        <path class="st0" d="M100,314.4v-7.3h15.8v-55.2h-15.8v-7.3h40v7.3h-15.8v55.2h15.8v7.3h-40Z"/>
      </g>
      <g class="st1">
        <path class="st0" d="M94.2,392.3l21-34.9-21-34.9h9.6l16.4,27.3,16-27.3h9.6l-21.1,34.8,21.1,35h-9.6l-16.5-27.4-15.9,27.4h-9.6Z"/>
      </g>
    </g>
  </g>
</svg>