<?xml version="1.0" encoding="UTF-8"?>
<svg id="Layer_2" data-name="Layer 2" xmlns="http://www.w3.org/2000/svg" viewBox="0 0 240 403.25">
  <defs>
    <style>
      .cls-1, .cls-2 {
        fill: #f27f55;
      }

      .cls-3 {
        fill: #e5d259;
      }

      .cls-2 {
        font-family: DMMono-Regular, 'DM Mono';
        font-size: 66.32px;
      }
    </style>
  </defs>
  <g id="Layer_1-2" data-name="Layer 1">
    <g>
      <g>
        <path class="cls-3" d="M25.6,211.49c3.7,4.19,7.85,7.1,10.96,9.54,1.52,1.3,3.07,2.07,4.38,2.84,1.31.76,2.43,1.4,3.34,1.92,1.83,1.02,2.81,1.56,2.81,1.56,0,0-.71-.86-2.04-2.49-1.29-1.62-3.48-3.88-5.72-6.96-2.18-3.14-4.84-6.68-7.33-11.27-.65-1.11-1.31-2.25-2-3.43-.6-1.23-1.14-2.53-1.73-3.84-1.17-2.62-2.54-5.25-3.42-8.26-.52-1.45-1.05-2.94-1.59-4.45-.56-1.49-.83-3.14-1.27-4.73-.42-1.59-.84-3.21-1.27-4.86-.27-1.68-.54-3.39-.82-5.11-1.28-6.85-1.36-14.21-1.24-21.68.71-7.47,1.49-15.16,3.83-22.62.8-3.83,2.55-7.37,3.76-11.1.71-1.83,1.66-3.55,2.47-5.34.85-1.77,1.61-3.59,2.72-5.22l2.97-5.08c.98-1.7,2.28-3.19,3.39-4.79l1.73-2.37.43-.6.21-.3.1-.15c-.39.45-.07.08-.14.16l.07-.08,1.05-1.25c1.39-1.62,2.84-3.44,4.17-4.87l3.95-4.2c1.44-1.44,2.87-2.88,4.29-4.31,2.92-2.83,5.86-5.59,8.84-8.34,6.05-5.54,11.9-10.9,17.44-15.98,5.58-5.19,10.77-10.38,15.36-15.37,4.56-5.06,8.53-9.91,11.65-14.54,1.62-2.25,3.08-4.4,4.22-6.54,1.22-2.07,2.3-3.98,3.11-5.82.85-1.8,1.64-3.37,2.2-4.81.5-1.45.93-2.69,1.28-3.69.65-1.99.99-3.05.99-3.05,0,0-.72.86-2.06,2.48-.65.8-1.45,1.79-2.39,2.95-1.01,1.09-2.17,2.34-3.48,3.75-1.24,1.43-2.77,2.88-4.46,4.42-.84.77-1.7,1.58-2.55,2.44-.93.8-1.89,1.64-2.88,2.49-1.94,1.74-4.12,3.48-6.46,5.26-2.26,1.84-4.79,3.66-7.37,5.58-10.4,7.69-23.16,15.88-36.61,26.07-3.39,2.49-6.74,5.27-10.12,8.11-1.68,1.47-3.37,2.94-5.07,4.42-1.7,1.66-3.4,3.33-5.11,5.01-1.68,1.67-3,3.21-4.52,4.83l-1.11,1.2-.34.39-.14.18-.28.36-.55.72-2.19,2.89c-1.42,1.96-3.01,3.81-4.27,5.89l-3.77,6.24c-1.31,2.06-2.25,4.3-3.27,6.5-.98,2.22-2.09,4.38-2.93,6.64-1.53,4.58-3.26,9.09-4.13,13.78-.49,2.33-1.1,4.62-1.47,6.95-.26,2.34-.52,4.67-.78,6.98C-.22,141.16.09,145.79,0,150.27c.63,8.98,1.91,17.6,4.52,25.38.63,1.94,1.26,3.85,1.87,5.73.8,1.81,1.59,3.6,2.37,5.35,1.46,3.53,3.32,6.73,5.17,9.73,1.71,3.07,3.76,5.76,5.74,8.26.99,1.25,1.92,2.48,2.89,3.62,1.05,1.08,2.07,2.13,3.05,3.14Z"/>
        <path class="cls-1" d="M145.3,116.18c-1.31-6.57-3.12-12.12-4.74-16.59-1.59-4.48-3.26-7.84-4.37-10.11-1.14-2.26-1.87-3.4-1.87-3.4,0,0,1.22,5.28,2.15,14.47.31,3.15.56,6.8.69,10.8h-68.68c-.95-3.91-4.46-6.83-8.66-6.83-4.94,0-8.94,4-8.94,8.94s4,8.94,8.94,8.94c4.21,0,7.71-2.92,8.66-6.83h68.75c.04,6.04-.28,12.8-1.18,20.06H55.59c-.95-3.91-4.46-6.83-8.66-6.83-4.94,0-8.94,4-8.94,8.94s4,8.94,8.94,8.94c4.21,0,7.71-2.92,8.66-6.83h79.86c-1.06,6.46-2.66,13.22-4.92,20.06H53.34c-.95-3.91-4.46-6.83-8.66-6.83-4.94,0-8.94,4-8.94,8.94s4,8.94,8.94,8.94c4.21,0,7.71-2.91,8.66-6.83h75.7c-2.49,6.75-5.65,13.5-9.59,20.06h-59.9c-.95-3.91-4.46-6.83-8.66-6.83-4.94,0-8.94,4-8.94,8.94s4,8.94,8.94,8.94c4.21,0,7.71-2.91,8.66-6.83h57.24c-4.47,6.82-9.72,13.37-15.64,19.52-.18.19-.38.36-.56.54h-27.87c-.95-3.91-4.46-6.83-8.66-6.83-4.94,0-8.94,4-8.94,8.94s4,8.94,8.94,8.94c4.21,0,7.71-2.92,8.66-6.83h23.56c-.12.11-.23.24-.36.35-1.81,1.65-3.58,3.39-5.43,4.86-1.92,1.55-3.47,3.06-5.68,4.66l-6.38,4.78-6.48,4.96c-2.26,1.68-4.33,3.64-6.49,5.44-2.18,1.78-4.18,3.79-6.18,5.78-2.04,1.94-3.97,3.98-5.82,6.11-7.53,8.33-13.91,17.54-18.8,27.11-4.93,9.55-8.32,19.45-10.37,28.98-2.08,9.54-2.71,18.74-2.55,27.1.07,8.37,1.19,15.95,2.56,22.5,1.31,6.57,3.12,12.11,4.74,16.59,1.59,4.48,3.25,7.84,4.36,10.12,1.14,2.26,1.87,3.4,1.87,3.4,0,0-1.23-5.27-2.16-14.46-.9-9.17-1.45-22.32.68-37.44,2.25-15.08,7.43-32.01,17.16-47.67,4.83-7.83,10.73-15.33,17.48-22.3,1.65-1.78,3.38-3.49,5.23-5.11,1.81-1.65,3.57-3.36,5.51-4.91,1.93-1.56,3.73-3.26,5.76-4.71l6.23-4.66,6.33-4.84c2.08-1.54,4.4-3.68,6.57-5.49,2.27-1.86,4.26-3.85,6.26-5.84,2.04-1.94,3.97-3.99,5.82-6.11,7.54-8.31,13.9-17.55,18.81-27.11,4.93-9.56,8.32-19.45,10.38-28.98,2.08-9.55,2.71-18.74,2.54-27.11-.08-8.38-1.19-15.95-2.57-22.51Z"/>
      </g>
      <text class="cls-2" transform="translate(59.75 385.35)"><tspan x="0" y="0">H</tspan><tspan x="37.47" y="0">E</tspan><tspan x="73.21" y="0">L</tspan><tspan x="106.64" y="0">I</tspan><tspan x="140.46" y="0">X</tspan></text>
    </g>
  </g>
</svg>